<mxfile host="app.diagrams.net" modified="2023-05-31T13:06:04.719Z" agent="Mozilla/5.0 (Windows NT 10.0; Win64; x64) AppleWebKit/537.36 (KHTML, like Gecko) Chrome/113.0.0.0 Safari/537.36" etag="Y5LLZsA3-Bj4I4TsTaLM" version="21.3.6" type="google">
  <diagram name="Page-1" id="9gKIjVqs5CauLeUQOGPr">
    <mxGraphModel grid="1" page="1" gridSize="10" guides="1" tooltips="1" connect="1" arrows="1" fold="1" pageScale="1" pageWidth="850" pageHeight="1100" math="0" shadow="0">
      <root>
        <mxCell id="0" />
        <mxCell id="1" parent="0" />
        <mxCell id="DVSt2vkONrmfuopFnb_z-3" style="edgeStyle=orthogonalEdgeStyle;rounded=0;orthogonalLoop=1;jettySize=auto;html=1;exitX=0.5;exitY=1;exitDx=0;exitDy=0;" edge="1" parent="1" source="DVSt2vkONrmfuopFnb_z-1" target="DVSt2vkONrmfuopFnb_z-2">
          <mxGeometry relative="1" as="geometry" />
        </mxCell>
        <mxCell id="DVSt2vkONrmfuopFnb_z-1" value="&amp;nbsp;user views profile (AD018)" style="rounded=1;whiteSpace=wrap;html=1;" vertex="1" parent="1">
          <mxGeometry x="80" y="100" width="120" height="60" as="geometry" />
        </mxCell>
        <mxCell id="DVSt2vkONrmfuopFnb_z-10" style="edgeStyle=orthogonalEdgeStyle;rounded=0;orthogonalLoop=1;jettySize=auto;html=1;exitX=0.5;exitY=1;exitDx=0;exitDy=0;entryX=0.5;entryY=0;entryDx=0;entryDy=0;" edge="1" parent="1" source="DVSt2vkONrmfuopFnb_z-2" target="DVSt2vkONrmfuopFnb_z-4">
          <mxGeometry relative="1" as="geometry" />
        </mxCell>
        <mxCell id="DVSt2vkONrmfuopFnb_z-2" value="click &quot;edit profile&quot;" style="rounded=1;whiteSpace=wrap;html=1;" vertex="1" parent="1">
          <mxGeometry x="80" y="190" width="120" height="60" as="geometry" />
        </mxCell>
        <mxCell id="DVSt2vkONrmfuopFnb_z-11" style="edgeStyle=orthogonalEdgeStyle;rounded=0;orthogonalLoop=1;jettySize=auto;html=1;exitX=0.5;exitY=1;exitDx=0;exitDy=0;" edge="1" parent="1" source="DVSt2vkONrmfuopFnb_z-4" target="DVSt2vkONrmfuopFnb_z-6">
          <mxGeometry relative="1" as="geometry" />
        </mxCell>
        <mxCell id="DVSt2vkONrmfuopFnb_z-4" value="change field&amp;nbsp;" style="rounded=1;whiteSpace=wrap;html=1;" vertex="1" parent="1">
          <mxGeometry x="80" y="280" width="120" height="60" as="geometry" />
        </mxCell>
        <mxCell id="DVSt2vkONrmfuopFnb_z-13" value="new data fails validation&amp;nbsp;" style="edgeStyle=orthogonalEdgeStyle;rounded=0;orthogonalLoop=1;jettySize=auto;html=1;exitX=0.5;exitY=0;exitDx=0;exitDy=0;entryX=0.5;entryY=1;entryDx=0;entryDy=0;" edge="1" parent="1" source="DVSt2vkONrmfuopFnb_z-5" target="DVSt2vkONrmfuopFnb_z-9">
          <mxGeometry relative="1" as="geometry" />
        </mxCell>
        <mxCell id="DVSt2vkONrmfuopFnb_z-15" value="passes validation&amp;nbsp;" style="edgeStyle=orthogonalEdgeStyle;rounded=0;orthogonalLoop=1;jettySize=auto;html=1;exitX=0.5;exitY=1;exitDx=0;exitDy=0;" edge="1" parent="1" source="DVSt2vkONrmfuopFnb_z-5" target="DVSt2vkONrmfuopFnb_z-7">
          <mxGeometry relative="1" as="geometry" />
        </mxCell>
        <mxCell id="DVSt2vkONrmfuopFnb_z-5" value="" style="rhombus;whiteSpace=wrap;html=1;" vertex="1" parent="1">
          <mxGeometry x="290" y="375" width="70" height="50" as="geometry" />
        </mxCell>
        <mxCell id="DVSt2vkONrmfuopFnb_z-12" style="edgeStyle=orthogonalEdgeStyle;rounded=0;orthogonalLoop=1;jettySize=auto;html=1;exitX=1;exitY=0.5;exitDx=0;exitDy=0;entryX=0;entryY=0.5;entryDx=0;entryDy=0;" edge="1" parent="1" source="DVSt2vkONrmfuopFnb_z-6" target="DVSt2vkONrmfuopFnb_z-5">
          <mxGeometry relative="1" as="geometry" />
        </mxCell>
        <mxCell id="DVSt2vkONrmfuopFnb_z-6" value="submit changes&amp;nbsp;" style="rounded=1;whiteSpace=wrap;html=1;" vertex="1" parent="1">
          <mxGeometry x="80" y="370" width="120" height="60" as="geometry" />
        </mxCell>
        <mxCell id="DVSt2vkONrmfuopFnb_z-16" style="edgeStyle=orthogonalEdgeStyle;rounded=0;orthogonalLoop=1;jettySize=auto;html=1;exitX=0.5;exitY=1;exitDx=0;exitDy=0;entryX=0.5;entryY=0;entryDx=0;entryDy=0;" edge="1" parent="1" source="DVSt2vkONrmfuopFnb_z-7" target="DVSt2vkONrmfuopFnb_z-8">
          <mxGeometry relative="1" as="geometry" />
        </mxCell>
        <mxCell id="DVSt2vkONrmfuopFnb_z-7" value="success message&amp;nbsp;" style="rounded=1;whiteSpace=wrap;html=1;" vertex="1" parent="1">
          <mxGeometry x="272.5" y="500" width="105" height="50" as="geometry" />
        </mxCell>
        <mxCell id="DVSt2vkONrmfuopFnb_z-18" style="edgeStyle=orthogonalEdgeStyle;rounded=0;orthogonalLoop=1;jettySize=auto;html=1;exitX=0.5;exitY=1;exitDx=0;exitDy=0;" edge="1" parent="1" source="DVSt2vkONrmfuopFnb_z-8" target="DVSt2vkONrmfuopFnb_z-17">
          <mxGeometry relative="1" as="geometry" />
        </mxCell>
        <mxCell id="DVSt2vkONrmfuopFnb_z-8" value="save new data" style="rounded=1;whiteSpace=wrap;html=1;" vertex="1" parent="1">
          <mxGeometry x="277.5" y="580" width="95" height="40" as="geometry" />
        </mxCell>
        <mxCell id="DVSt2vkONrmfuopFnb_z-14" style="edgeStyle=orthogonalEdgeStyle;rounded=0;orthogonalLoop=1;jettySize=auto;html=1;exitX=0;exitY=0.5;exitDx=0;exitDy=0;entryX=1;entryY=0.5;entryDx=0;entryDy=0;" edge="1" parent="1" source="DVSt2vkONrmfuopFnb_z-9" target="DVSt2vkONrmfuopFnb_z-4">
          <mxGeometry relative="1" as="geometry" />
        </mxCell>
        <mxCell id="DVSt2vkONrmfuopFnb_z-9" value="error message&amp;nbsp;" style="rounded=1;whiteSpace=wrap;html=1;" vertex="1" parent="1">
          <mxGeometry x="272.5" y="290" width="105" height="40" as="geometry" />
        </mxCell>
        <mxCell id="DVSt2vkONrmfuopFnb_z-17" value="" style="ellipse;html=1;shape=endState;fillColor=#000000;strokeColor=#ff0000;" vertex="1" parent="1">
          <mxGeometry x="310" y="650" width="30" height="30" as="geometry" />
        </mxCell>
        <mxCell id="DVSt2vkONrmfuopFnb_z-19" value="" style="ellipse;html=1;shape=startState;fillColor=#000000;strokeColor=#ff0000;" vertex="1" parent="1">
          <mxGeometry x="125" y="10" width="30" height="30" as="geometry" />
        </mxCell>
        <mxCell id="DVSt2vkONrmfuopFnb_z-20" value="" style="edgeStyle=orthogonalEdgeStyle;html=1;verticalAlign=bottom;endArrow=open;endSize=8;strokeColor=#ff0000;rounded=0;" edge="1" parent="1" source="DVSt2vkONrmfuopFnb_z-19">
          <mxGeometry relative="1" as="geometry">
            <mxPoint x="140" y="100" as="targetPoint" />
          </mxGeometry>
        </mxCell>
      </root>
    </mxGraphModel>
  </diagram>
</mxfile>
